<?xml version="1.0" encoding="utf-8"?>
<!-- Generator: Adobe Illustrator 26.1.0, SVG Export Plug-In . SVG Version: 6.00 Build 0)  -->
<svg version="1.1" id="Livello_1" xmlns="http://www.w3.org/2000/svg" xmlns:xlink="http://www.w3.org/1999/xlink" x="0px" y="0px"
	 viewBox="0 0 61 61" style="enable-background:new 0 0 61 61;" xml:space="preserve">
<style type="text/css">
	.st0{stroke:#000000;stroke-miterlimit:10;}
	.st1{fill:none;stroke:#F4EDEC;stroke-width:4;stroke-miterlimit:10;}
	.st2{stroke:#F4EDEC;stroke-width:4;stroke-miterlimit:10;}
</style>
<path class="st0" d="M30.1,36.3"/>
<polyline class="st1" points="28.8,-53.3 37.8,-42.9 46.8,-53.3 "/>
<path d="M59.6,13.2v34.7c0,1.7-1.3,3-3,3H4.4c-1.7,0-3-1.3-3-3V13.2c0-0.3,0-0.6,0.1-0.9c0,0,0,0,0,0c0.4-1.2,1.5-2.1,2.9-2.1h52.2
	c1.3,0,2.5,0.9,2.9,2.1c0,0,0,0,0,0C59.5,12.6,59.6,12.9,59.6,13.2z"/>
<path class="st2" d="M56.6,16L33.8,35.1c-1.8,1.5-4.8,1.5-6.7,0L4.4,16c-1-0.9-1.5-2-1.4-3.1c0,0,0,0,0,0c0.4-1,1.4-1.7,2.7-1.7
	h49.5c1.3,0,2.4,0.7,2.7,1.7c0,0,0,0,0,0C58.1,14,57.7,15.2,56.6,16z"/>
</svg>
