<?xml version="1.0" encoding="utf-8"?>
<!-- Generator: Adobe Illustrator 26.1.0, SVG Export Plug-In . SVG Version: 6.00 Build 0)  -->
<svg version="1.1" id="Livello_1" xmlns="http://www.w3.org/2000/svg" xmlns:xlink="http://www.w3.org/1999/xlink" x="0px" y="0px"
	 viewBox="0 0 61 61" style="enable-background:new 0 0 61 61;" xml:space="preserve">
<style type="text/css">
	.st0{fill:#F4EDEC;stroke:#000000;stroke-width:0.75;stroke-miterlimit:10;}
	.st1{stroke:#000000;stroke-miterlimit:10;}
	.st2{fill:none;stroke:#F4EDEC;stroke-width:4;stroke-miterlimit:10;}
	.st3{fill-rule:evenodd;clip-rule:evenodd;stroke:#000000;stroke-miterlimit:10;}
</style>
<circle class="st0" cx="30.5" cy="30.5" r="30.2"/>
<path class="st1" d="M30.1,36.8"/>
<polyline class="st2" points="21.1,44.1 30.1,54.5 39.1,44.1 "/>
<path class="st3" d="M30.5,0.3C13.8,0.3,0.4,13.9,0.4,30.6C0.4,44,9,55.4,21,59.4c1.5,0.3,2.1-0.7,2.1-1.5c0-0.7,0-3.1,0-5.7
	c-7.6,1.4-9.5-1.9-10.2-3.5c-0.3-0.9-1.8-3.5-3.1-4.3c-1.1-0.6-2.6-2,0-2.1c2.4,0,4,2.2,4.6,3.1c2.7,4.6,7,3.3,8.8,2.5
	c0.3-2,1.1-3.3,1.9-4c-6.7-0.8-13.7-3.3-13.7-15c0-3.3,1.2-6.1,3.1-8.1c-0.3-0.8-1.4-3.8,0.3-8c0,0,2.6-0.8,8.3,3.1
	c2.4-0.7,4.9-1,7.5-1s5.1,0.3,7.5,1c5.7-3.9,8.3-3.1,8.3-3.1c1.7,4.2,0.6,7.2,0.3,8c1.9,2.2,3.1,4.8,3.1,8.1c0,11.6-7,14.2-13.7,15
	c1.1,1,2.1,2.7,2.1,5.6c0,4,0,7.3,0,8.3c0,0.8,0.6,1.8,2.1,1.5C52,55.3,60.6,43.9,60.6,30.6C60.6,13.9,47.2,0.3,30.5,0.3z"/>
</svg>
