<?xml version="1.0" encoding="utf-8"?>
<!-- Generator: Adobe Illustrator 26.1.0, SVG Export Plug-In . SVG Version: 6.00 Build 0)  -->
<svg version="1.1" id="Livello_1" xmlns="http://www.w3.org/2000/svg" xmlns:xlink="http://www.w3.org/1999/xlink" x="0px" y="0px"
	 viewBox="0 0 50.5 54.1" style="enable-background:new 0 0 50.5 54.1;" xml:space="preserve">
<style type="text/css">
	.st0{fill:#FFFFFF;stroke:#FFFFFF;stroke-miterlimit:10;}
</style>
<g id="Raggruppa_1866_00000176754469703516819200000007392631699123962783_">
	
		<image style="overflow:visible;opacity:0.75;" width="68" height="84" xlink:href="A3AE694046C5FB1F.png"  transform="matrix(1 0 0 1 -9 -14.9)">
	</image>
	<g>
		<g>
			<path id="Tracciato_225_00000098183048773028470980000000956642686828640958_" class="st0" d="M7.3,32.9v-1.3
				c2.5,0,4.4-2,4.6-4.6c0-2.5-2.1-4.4-4.6-4.4v-1.3c3.1,0,5.7,2.6,5.7,5.7C13,30.2,10.4,32.9,7.3,32.9z"/>
			<path id="Tracciato_226_00000088812036094058163930000008998324753797434760_" class="st0" d="M32.1,27.1c0-6.5-2.5-12.8-7-17.5
				c0.3-0.3,0.7-0.7,1-0.8c4.7,4.9,7.4,11.5,7.4,18.3c0,3.3-0.7,6.4-1.8,9.3c-0.3-0.3-0.7-0.8-1-1.1C31.8,32.7,32.3,29.9,32.1,27.1z
				 M30.3,36.6C26.4,45.9,17.3,52,7.3,52v1.3c10.3,0,19.8-6.1,24-15.5C30.8,37.4,30.5,37.1,30.3,36.6z M25.3,8
				C20.4,3.4,14,0.8,7.3,0.8v1.3c6.4,0,12.4,2.5,17,6.7C24.6,8.5,24.8,8.3,25.3,8L25.3,8z"/>
			<path id="Tracciato_227_00000114756846498775308830000009297696139002016386_" class="st0" d="M7.3,12.4v-1.3c8.8,0,16,7.2,16,16
				c0,3.4-1.1,6.9-3.1,9.5c-0.2-0.5-0.3-1-0.5-1.5c1.6-2.5,2.5-5.2,2.5-8.2C22,19,15.3,12.4,7.3,12.4z M18.6,36.5
				c-2.8,3.4-7,5.4-11.3,5.2V43c4.6,0,8.8-2,11.9-5.4C18.9,37.3,18.7,36.9,18.6,36.5L18.6,36.5z"/>
			<path id="Tracciato_228_00000044150865161339784630000009930169946564618140_" class="st0" d="M43.3,32.9c-3.3,0-5.7-2.6-5.7-5.7
				s2.6-5.7,5.7-5.7l0,0v1.3c-2.5,0-4.6,2-4.6,4.6s2,4.6,4.6,4.6l0,0V32.9z"/>
			<path id="Tracciato_229_00000169547713852046542130000014213530601972104862_" class="st0" d="M24.3,45.5
				c-7.2-7.4-9.3-18.2-5.7-27.6c0.3,0.3,0.7,0.8,1,1.1c-3.1,9-0.8,18.8,5.7,25.5C24.8,44.8,24.6,45.1,24.3,45.5z M25.3,46.3
				c4.9,4.6,11.3,7.2,18,7.2v-1.3c-6.4,0-12.4-2.5-17-6.7C25.9,45.6,25.6,45.9,25.3,46.3L25.3,46.3z M19.2,16.2
				c0.3,0.3,0.7,0.7,1,1.1C24.1,8,33.3,1.9,43.4,1.9V0.6C32.8,0.6,23.3,6.7,19.2,16.2z"/>
			<path id="Tracciato_230_00000145042061881277273970000007897446413725042858_" class="st0" d="M43.3,41.9v1.3
				c-8.8,0-16-7.2-16-16c0-3.4,1.1-6.9,3.1-9.7c0.2,0.5,0.3,1,0.5,1.5c-4.4,6.7-2.6,15.9,4.1,20.5C37.5,41,40.3,41.9,43.3,41.9z
				 M31.2,16.2c0.2,0.5,0.3,0.8,0.5,1.3c2.8-3.4,7-5.4,11.5-5.2v-1.3C38.7,10.9,34.3,12.9,31.2,16.2L31.2,16.2z"/>
		</g>
	</g>
</g>
</svg>
