<svg xmlns="http://www.w3.org/2000/svg" viewBox="0 0 311.62 41.72"><g id="Livello_2" data-name="Livello 2"><g id="Livello_1-2" data-name="Livello 1"><path d="M227.15,18.84a6.58,6.58,0,0,0-2.5-4.19,8.32,8.32,0,0,0-4.77-1.25,7.21,7.21,0,0,0-3.58.84,7.11,7.11,0,0,0-2.48,2.24,9.85,9.85,0,0,0-1.44,3.24,15.88,15.88,0,0,0-.47,3.89,18.38,18.38,0,0,0,.4,3.78,10.13,10.13,0,0,0,1.33,3.31,7.06,7.06,0,0,0,2.5,2.35,7.77,7.77,0,0,0,3.93.9,7.27,7.27,0,0,0,2.69-.48,6.67,6.67,0,0,0,2.13-1.33,7.84,7.84,0,0,0,1.54-2,10.17,10.17,0,0,0,.94-2.53h2.27a14.55,14.55,0,0,1-1.12,3.15,9.22,9.22,0,0,1-1.93,2.61,8.9,8.9,0,0,1-2.92,1.78,11.35,11.35,0,0,1-4,.65,9.83,9.83,0,0,1-4.55-1A8.58,8.58,0,0,1,212,32.19a11.08,11.08,0,0,1-1.75-3.86,19.37,19.37,0,0,1-.54-4.65,17,17,0,0,1,.81-5.6,10,10,0,0,1,2.26-3.76,8.47,8.47,0,0,1,3.39-2.12,13.49,13.49,0,0,1,4.26-.65,11.21,11.21,0,0,1,3.28.46,8.28,8.28,0,0,1,2.69,1.39,7.74,7.74,0,0,1,1.91,2.29,9.43,9.43,0,0,1,1,3.15Z"/><path d="M240.2,35.64a8.64,8.64,0,0,1-3-.57,6.68,6.68,0,0,1-2.43-1.63,7.73,7.73,0,0,1-1.65-2.73,10.7,10.7,0,0,1-.61-3.8A11.71,11.71,0,0,1,233,23.5a8,8,0,0,1,1.44-2.77,6.84,6.84,0,0,1,2.4-1.87,8.6,8.6,0,0,1,6.75,0,7,7,0,0,1,2.4,1.85,7.76,7.76,0,0,1,1.43,2.77,12.26,12.26,0,0,1,.46,3.43,11.17,11.17,0,0,1-.54,3.58,8.1,8.1,0,0,1-1.55,2.75A7,7,0,0,1,243.35,35,7.7,7.7,0,0,1,240.2,35.64Zm5.63-8.73a11,11,0,0,0-.32-2.75,6.4,6.4,0,0,0-1-2.23,4.81,4.81,0,0,0-1.73-1.49,5.64,5.64,0,0,0-2.59-.54,5.28,5.28,0,0,0-2.57.59,5.1,5.1,0,0,0-1.75,1.57,6.8,6.8,0,0,0-1,2.24,10.72,10.72,0,0,0-.32,2.61,10.15,10.15,0,0,0,.37,2.83A6.55,6.55,0,0,0,236,32a4.74,4.74,0,0,0,1.76,1.44,5.36,5.36,0,0,0,2.43.52,5.23,5.23,0,0,0,2.58-.6,5,5,0,0,0,1.74-1.58,7,7,0,0,0,1-2.24A10.1,10.1,0,0,0,245.83,26.91Z"/><path d="M253.42,35.2H251.5V18.62h1.92v3.1h.06A5.48,5.48,0,0,1,255.55,19a6.19,6.19,0,0,1,3.34-.79v2.08a5.65,5.65,0,0,0-2.69.51,4.55,4.55,0,0,0-1.68,1.48,5.65,5.65,0,0,0-.86,2.19,14.09,14.09,0,0,0-.24,2.64Z"/><path d="M264.2,41.72h-1.92V18.62h1.92v2.91h.06a5.78,5.78,0,0,1,1.08-1.44A5.91,5.91,0,0,1,266.78,19a7.11,7.11,0,0,1,1.61-.64,6.28,6.28,0,0,1,1.63-.23,8,8,0,0,1,3.43.67,6.5,6.5,0,0,1,2.32,1.84,7.51,7.51,0,0,1,1.33,2.77,14,14,0,0,1,.41,3.43,12.15,12.15,0,0,1-.45,3.32A8.21,8.21,0,0,1,275.7,33a6.63,6.63,0,0,1-2.3,1.92,7.05,7.05,0,0,1-3.28.72,7.71,7.71,0,0,1-3.38-.78,6,6,0,0,1-2.54-2.32Zm0-14.75a9.31,9.31,0,0,0,.38,2.67,7,7,0,0,0,1.11,2.21,5.55,5.55,0,0,0,1.76,1.51,4.92,4.92,0,0,0,2.35.56,5.34,5.34,0,0,0,2.58-.6,5,5,0,0,0,1.8-1.61,7.18,7.18,0,0,0,1-2.39,10.61,10.61,0,0,0,.25-2.92,8.1,8.1,0,0,0-.43-2.77,5.91,5.91,0,0,0-1.2-2A5.1,5.1,0,0,0,272,20.33a5.66,5.66,0,0,0-2.24-.43,5,5,0,0,0-4.16,2,6.75,6.75,0,0,0-1.07,2.24A10.08,10.08,0,0,0,264.2,27Z"/><path d="M292.84,18.62h1.92V35.2h-1.92V32.89c-.26.3-.54.61-.86.93a6.62,6.62,0,0,1-1.11.88,6.07,6.07,0,0,1-1.45.67,6.27,6.27,0,0,1-1.92.27,7.33,7.33,0,0,1-2.79-.46,4.58,4.58,0,0,1-1.81-1.3,5.06,5.06,0,0,1-1-1.93,9.22,9.22,0,0,1-.3-2.42V18.62h1.92V29.5a4.85,4.85,0,0,0,1,3.28,4.12,4.12,0,0,0,3.26,1.14,4.76,4.76,0,0,0,2.13-.47,4.53,4.53,0,0,0,1.59-1.29,6.5,6.5,0,0,0,1-2,8.79,8.79,0,0,0,.35-2.53Z"/><path d="M300.52,30a4.9,4.9,0,0,0,1.62,3,5.49,5.49,0,0,0,3.34.88,5.78,5.78,0,0,0,1.82-.26,3.58,3.58,0,0,0,1.27-.69,3,3,0,0,0,.75-1,2.73,2.73,0,0,0,.26-1.16,2.11,2.11,0,0,0-.79-1.8,5.72,5.72,0,0,0-2-.93,23.67,23.67,0,0,0-2.56-.58,12.67,12.67,0,0,1-2.56-.72,5.14,5.14,0,0,1-2-1.37,3.69,3.69,0,0,1-.79-2.53,4.32,4.32,0,0,1,1.52-3.41,6.32,6.32,0,0,1,4.31-1.33,7.32,7.32,0,0,1,4.36,1.2,5.52,5.52,0,0,1,2,4h-2a3.61,3.61,0,0,0-1.45-2.71,5.46,5.46,0,0,0-3-.78,4.32,4.32,0,0,0-2.78.78,2.55,2.55,0,0,0-1,2.07,2,2,0,0,0,.78,1.71,6.7,6.7,0,0,0,2,1c.79.25,1.64.46,2.56.66a12.56,12.56,0,0,1,2.56.81,5.54,5.54,0,0,1,2,1.43,3.66,3.66,0,0,1,.78,2.49,4.24,4.24,0,0,1-.51,2.1,4.45,4.45,0,0,1-1.41,1.52,6.5,6.5,0,0,1-2.12.91,11.54,11.54,0,0,1-2.71.3,7.29,7.29,0,0,1-2.61-.43,5.74,5.74,0,0,1-1.93-1.2,5.46,5.46,0,0,1-1.25-1.79,6.22,6.22,0,0,1-.51-2.21Z"/><g id="Raggruppa_1864" data-name="Raggruppa 1864"><path id="Tracciato_111" data-name="Tracciato 111" d="M46.63,7H35.41V36h5V24h6c6,0,9.67-3.29,9.67-8.6C56.1,10.3,52.38,7,46.63,7Zm-6.22,4h5.84c3.18,0,5,1.64,5,4.5S49.48,20,46.11,20h-5.7Z"/><path id="Tracciato_112" data-name="Tracciato 112" d="M151.56,14.52a7.78,7.78,0,0,0-6.67,2.89,18.76,18.76,0,0,0-.16-2.16l0-.25h-3.33v.31c0,1.56,0,3.37,0,5.13V36h4V24.63c0-2.93.86-6.42,5-6.42,2.69,0,4,1.54,4,4.7V36h5V22.61C159.4,17.55,156.47,14.52,151.56,14.52Z"/><g id="Raggruppa_185" data-name="Raggruppa 185"><path id="Tracciato_113" data-name="Tracciato 113" d="M68.61,14h0a11,11,0,0,0,0,22h0A11,11,0,0,0,79.26,21.8,10.89,10.89,0,0,0,68.86,14Zm0,17.93a6.6,6.6,0,1,1,6.6-6.6A6.6,6.6,0,0,1,68.61,31.93Z"/><path id="Tracciato_114" data-name="Tracciato 114" d="M126,14h0a11,11,0,0,0,0,22h0A11,11,0,0,0,136.62,21.8,10.91,10.91,0,0,0,126.21,14Zm0,17.93a6.6,6.6,0,1,1,6.6-6.6A6.6,6.6,0,0,1,126,31.93Z"/><path id="Tracciato_115" data-name="Tracciato 115" d="M190.7,35.61c-.19-1.53-.29-4.61-.29-4.61V21.34a8.2,8.2,0,0,0-2-5.34c-1.31-1.34-4.15-1.92-6.28-2h0c-6.79.19-8.18,4.26-8.41,6.69l0,.31h4.41l.06-.22c.36-1.61.9-2.94,3.89-2.94,3.5,0,3.41,3.53,3.41,3.53V23h-2.62c-6.6-.26-10.1,2.18-10.1,6.8a6.55,6.55,0,0,0,1.74,4.57A7.39,7.39,0,0,0,180,36.46c2.76,0,4.78-.82,6-2.43a7.91,7.91,0,0,0,.29,1.74l.07.23h4.4Zm-9.34-2.82c-2.18,0-3.53-1.24-3.53-3.23,0-2.46,1.77-3.56,5.73-3.56h2.85v.34c0,3.87-.86,6.45-5,6.45Z"/></g><rect id="Rettangolo_165" data-name="Rettangolo 165" x="83.41" y="6" width="5" height="30"/><path id="Tracciato_116" data-name="Tracciato 116" d="M114.17,5.29A10.63,10.63,0,0,0,111.48,5c-4.56,0-7.07,2.91-7.07,8.2V15h-3v3h3V36h5V19h4V15h-4V13.08c.12-2.36.53-3.72,2.63-3.72a8.12,8.12,0,0,1,1.63.16l.74.09V5.36Z"/><g id="Raggruppa_187" data-name="Raggruppa 187"><g id="Raggruppa_186" data-name="Raggruppa 186"><rect id="Rettangolo_166" data-name="Rettangolo 166" x="164.41" y="15" width="5" height="21"/></g><rect id="Rettangolo_167" data-name="Rettangolo 167" x="164.41" y="6" width="5" height="5"/></g><g id="Raggruppa_189" data-name="Raggruppa 189"><g id="Raggruppa_188" data-name="Raggruppa 188"><rect id="Rettangolo_168" data-name="Rettangolo 168" x="93.41" y="15" width="5" height="21"/></g><rect id="Rettangolo_169" data-name="Rettangolo 169" x="93.41" y="6" width="5" height="5"/></g></g><g id="Raggruppa_1866" data-name="Raggruppa 1866"><path id="Tracciato_225" data-name="Tracciato 225" d="M0,25v-1a3.51,3.51,0,0,0,3.5-3.5A3.5,3.5,0,0,0,0,17.07v-1a4.49,4.49,0,0,1,4.48,4.48A4.48,4.48,0,0,1,0,25Z"/><path id="Tracciato_226" data-name="Tracciato 226" d="M19.45,20.56A19.4,19.4,0,0,0,14,7c.22-.23.46-.46.7-.69a20.4,20.4,0,0,1,5.77,14.21,20.45,20.45,0,0,1-1.35,7.3c-.25-.3-.49-.62-.71-.94A19.39,19.39,0,0,0,19.45,20.56ZM18,28A19.48,19.48,0,0,1,0,40v1A20.47,20.47,0,0,0,18.66,28.89C18.41,28.61,18.18,28.32,18,28ZM14,5.67A20.35,20.35,0,0,0,0,.13v1A19.4,19.4,0,0,1,13.26,6.36c.23-.24.46-.47.7-.7Z"/><path id="Tracciato_227" data-name="Tracciato 227" d="M0,9.09v-1A12.47,12.47,0,0,1,12.46,20.56,12.41,12.41,0,0,1,10,28c-.15-.36-.29-.73-.42-1.1a11.47,11.47,0,0,0,1.93-6.37A11.49,11.49,0,0,0,0,9.09ZM8.84,27.87A11.46,11.46,0,0,1,0,32v1a12.42,12.42,0,0,0,9.26-4.14c-.15-.33-.29-.67-.42-1Z"/><path id="Tracciato_228" data-name="Tracciato 228" d="M28,25a4.48,4.48,0,0,1,0-9v1a3.5,3.5,0,1,0,0,7Z"/><path id="Tracciato_229" data-name="Tracciato 229" d="M13.26,34.77a20.38,20.38,0,0,1-4.42-21.5,10.41,10.41,0,0,1,.7.94A19.39,19.39,0,0,0,14,34.08C13.73,34.32,13.5,34.55,13.26,34.77Zm.73.69A20.35,20.35,0,0,0,28,41V40a19.36,19.36,0,0,1-13.26-5.24c-.23.24-.46.47-.7.69ZM9.29,12.12c.25.27.48.56.7.85A19.48,19.48,0,0,1,28,1V0A20.46,20.46,0,0,0,9.29,12.12Z"/><path id="Tracciato_230" data-name="Tracciato 230" d="M28,32v1A12.45,12.45,0,0,1,18,13.1c.15.37.3.73.43,1.11A11.46,11.46,0,0,0,28,32ZM18.69,12.12c.14.33.29.67.42,1A11.45,11.45,0,0,1,28,9V8a12.4,12.4,0,0,0-9.26,4.14Z"/></g></g></g></svg>