<?xml version="1.0" encoding="utf-8"?>
<!-- Generator: Adobe Illustrator 26.1.0, SVG Export Plug-In . SVG Version: 6.00 Build 0)  -->
<svg version="1.1"
	 id="Componente_4_2" inkscape:version="1.0.1 (3bc2e813f5, 2020-09-07)" sodipodi:docname="polifonia-icon-bells.svg" xmlns:cc="http://creativecommons.org/ns#" xmlns:dc="http://purl.org/dc/elements/1.1/" xmlns:inkscape="http://www.inkscape.org/namespaces/inkscape" xmlns:rdf="http://www.w3.org/1999/02/22-rdf-syntax-ns#" xmlns:sodipodi="http://sodipodi.sourceforge.net/DTD/sodipodi-0.dtd" xmlns:svg="http://www.w3.org/2000/svg"
	 xmlns="http://www.w3.org/2000/svg" xmlns:xlink="http://www.w3.org/1999/xlink" x="0px" y="0px" viewBox="0 0 285.2 285.2"
	 style="enable-background:new 0 0 285.2 285.2;" xml:space="preserve">
<style type="text/css">
	.st0{fill:none;stroke:#000000;stroke-width:7;stroke-linecap:round;stroke-linejoin:round;}
</style>
<sodipodi:namedview  bordercolor="#666666" borderopacity="1" gridtolerance="10" guidetolerance="10" id="namedview33" inkscape:current-layer="Componente_4_2" inkscape:cx="142.58749" inkscape:cy="142.58749" inkscape:pageopacity="0" inkscape:pageshadow="2" inkscape:window-height="480" inkscape:window-maximized="0" inkscape:window-width="876" inkscape:window-x="0" inkscape:window-y="30" inkscape:zoom="3.0156922" objecttolerance="10" pagecolor="#ffffff" showgrid="false">
	</sodipodi:namedview>
<g id="Raggruppa_1951" transform="translate(81.878 69.741)">
	<g id="Raggruppa_1945">
		<path id="Tracciato_1734" class="st0" d="M60.7,211.6c-9.2-0.1-18-3.7-24.6-10l0,0c-6.5-6.5-10.1-15.4-10-24.6h-81.1
			c-3.8,0.1-6.9-3-7-6.8c0-0.1,0-0.1,0-0.2c0.1-0.9,0.3-1.9,0.6-2.7c4-13.7,9.4-19.8,14.6-26.1c8.8-10.6,17.6-21,18.2-84.8
			c-0.3-26.2,9-51.6,26.1-71.4C8.9-28.4,24.1-38,40.9-42.8c0-0.9-0.3-1.8-0.3-2.7c-0.1-5.4,2.1-10.6,6.1-14.3
			c3.8-3.8,8.9-6,14.3-6.1"/>
	</g>
	<g id="Raggruppa_1946" transform="translate(14.125 20.172)">
		<path id="Tracciato_1735" class="st0" d="M46.6-30.8c-4.2,0-8.4,0.5-12.5,1.5C22.8-26,12.6-19.5,5-10.6
			c-12,14-18.5,31.9-18.3,50.3v0.2c-0.3,26.6-2.1,45.2-5.9,58.5c-2.5,9.6-7.3,18.5-13.9,25.9l0,0.1c-0.3,0.4-0.6,0.7-0.9,1.1
			c-0.4,0.5-0.7,0.9-1.1,1.3h69.2v17.6c-0.1,3.3,1.1,6.4,3.4,8.8c2.5,2.3,5.7,3.6,9.1,3.7"/>
	</g>
	<g id="Raggruppa_1948" transform="translate(60.63)">
		<path id="Tracciato_1737" class="st0" d="M0.1-65.9c5.4,0.1,10.5,2.3,14.3,6.1c3.9,3.7,6.1,8.9,6.1,14.3c0,0.9-0.3,1.8-0.3,2.7
			C37-38,52.1-28.4,63.6-15.1C80.7,4.7,90,30.1,89.7,56.3c0.6,63.8,9.4,74.2,18.2,84.8c5.2,6.4,10.6,12.5,14.6,26.1
			c0.3,0.9,0.6,1.8,0.6,2.7c0.1,3.8-3,6.9-6.8,7c-0.1,0-0.1,0-0.2,0H35c0.1,9.2-3.5,18.1-10,24.6l0,0c-6.8,6.4-15.7,9.9-24.9,10"/>
	</g>
	<g id="Raggruppa_1949" transform="translate(60.63 20.172)">
		<path id="Tracciato_1738" class="st0" d="M0.1,156.8c3.5-0.1,6.8-1.4,9.4-3.7c2.3-2.3,3.5-5.5,3.4-8.8v-17.6H82
			c-0.4-0.4-0.7-0.9-1.1-1.3l-0.9-1.1l0-0.1c-6.6-7.4-11.3-16.3-13.9-25.9c-3.7-13.3-5.6-31.8-5.9-58.5v-0.2
			C60.5,21.3,54,3.4,42-10.6C34.3-19.5,24.2-26,12.9-29.3c-4.2-1-8.5-1.5-12.8-1.5"/>
	</g>
</g>
</svg>
