<?xml version="1.0" encoding="utf-8"?>
<!-- Generator: Adobe Illustrator 26.1.0, SVG Export Plug-In . SVG Version: 6.00 Build 0)  -->
<svg version="1.1"
	 id="Componente_10_2" inkscape:version="1.0.1 (3bc2e813f5, 2020-09-07)" sodipodi:docname="polifonia-icon-child.svg" xmlns:cc="http://creativecommons.org/ns#" xmlns:dc="http://purl.org/dc/elements/1.1/" xmlns:inkscape="http://www.inkscape.org/namespaces/inkscape" xmlns:rdf="http://www.w3.org/1999/02/22-rdf-syntax-ns#" xmlns:sodipodi="http://sodipodi.sourceforge.net/DTD/sodipodi-0.dtd" xmlns:svg="http://www.w3.org/2000/svg"
	 xmlns="http://www.w3.org/2000/svg" xmlns:xlink="http://www.w3.org/1999/xlink" x="0px" y="0px" viewBox="0 0 285.4 285.4"
	 style="enable-background:new 0 0 285.4 285.4;" xml:space="preserve">
<style type="text/css">
	.st0{fill:none;stroke:#4878F8;stroke-width:9;stroke-linecap:round;stroke-linejoin:round;}
	.st1{fill:none;stroke:#4878F8;stroke-width:9;stroke-linecap:round;stroke-linejoin:round;stroke-miterlimit:4;}
</style>
<sodipodi:namedview  bordercolor="#666666" borderopacity="1" gridtolerance="10" guidetolerance="10" id="namedview25" inkscape:current-layer="Componente_10_2" inkscape:cx="142.68449" inkscape:cy="142.68449" inkscape:pageopacity="0" inkscape:pageshadow="2" inkscape:window-height="480" inkscape:window-maximized="0" inkscape:window-width="876" inkscape:window-x="0" inkscape:window-y="30" inkscape:zoom="3.0136421" objecttolerance="10" pagecolor="#ffffff" showgrid="false">
	</sodipodi:namedview>
<g id="Raggruppa_1960" transform="translate(81.897 77.084)">
	<path id="Tracciato_1752" class="st0" d="M158.1,102.6c-7,13.2-2.1,29.8,11.1,36.8c1.9,1.1,4,1.9,6.2,2.3c-0.9,0.4-1.5,0.9-2.3,1.3
		c-10.9,4.7-23.6-0.2-28.3-11.1s0.2-23.6,11.1-28.3C156.4,103.3,157.2,103.1,158.1,102.6z"/>
	<line id="Linea_296" class="st0" x1="-33.3" y1="29.6" x2="-33.3" y2="103.7"/>
	<line id="Linea_297" class="st0" x1="155.3" y1="29.8" x2="155.3" y2="103.7"/>
	<line id="Linea_298" class="st0" x1="92.5" y1="10.5" x2="92.5" y2="121.1"/>
	<line id="Linea_299" class="st0" x1="29.5" y1="10.5" x2="29.5" y2="84.4"/>
	<path id="Linea_300_00000137104858497486977940000013819017578914207120_" class="st0" d="M51.2,183.5"/>
	<path id="Linea_300_00000039093808665310392850000000375406363815680153_" class="st0" d="M51.2,8.4"/>
	<path id="Linea_301_00000052794917632610660430000015968576525608289945_" class="st0" d="M8,183.5"/>
	<path id="Linea_301_00000156578775329764626860000015267484321620812220_" class="st0" d="M8,14.7"/>
	<line id="Linea_302" class="st0" x1="60.8" y1="8.1" x2="60.8" y2="-22.9"/>
	<circle id="Ellisse_162" class="st0" cx="60.8" cy="-48.5" r="25.5"/>
	<circle id="Ellisse_163" class="st0" cx="29.5" cy="107.9" r="21.7"/>
	
		<rect id="Rettangolo_419" x="-51.1" y="111.1" transform="matrix(0.7071 -0.7071 0.7071 0.7071 -100.923 14.2864)" class="st1" width="35.8" height="35.8"/>
	<path id="Tracciato_1753" class="st0" d="M92.5,159L77,168.4l4-17.7l-13.6-11.9l18.1-1.5l7-16.6l7,16.6l18.1,1.5L104,150.7l4,17.7
		L92.5,159z"/>
	<path id="Tracciato_1754" class="st0" d="M-68.6,51.1c76.8-57.2,182-57.2,258.8,0"/>
</g>
</svg>
