<?xml version="1.0" encoding="utf-8"?>
<!-- Generator: Adobe Illustrator 26.1.0, SVG Export Plug-In . SVG Version: 6.00 Build 0)  -->
<svg version="1.1" id="Livello_1" xmlns="http://www.w3.org/2000/svg" xmlns:xlink="http://www.w3.org/1999/xlink" x="0px" y="0px"
	 viewBox="0 0 63 63" style="enable-background:new 0 0 63 63;" xml:space="preserve">
<style type="text/css">
	.st0{fill:#F4EDEC;}
	.st1{fill:#F4EDEC;stroke:#4D4D4D;stroke-linecap:round;stroke-miterlimit:10;}
	.st2{fill:#F4EDEC;stroke:#4D4D4D;stroke-width:1.4;stroke-linecap:round;stroke-miterlimit:10;}
</style>
<rect x="0" y="0" class="st0" width="63" height="63"/>
<g id="reset_00000050622015337113857350000005867988131216197254_">
	<path id="reset_00000064349970621439801120000003661604286304072338_" class="st1" d="M31.5,44.6c-6.8,0-12.3-5.5-12.3-12.3
		s5.5-12.2,12.3-12.2c3.6,0,6.9,1.5,9.2,4.2v-3.9h0.6v5.1h-5.1v-0.6h4.2c-2.3-2.7-5.5-4.2-9-4.2c-6.4,0-11.6,5.3-11.6,11.6
		c0,6.4,5.3,11.6,11.6,11.6c6.4,0,11.6-5.3,11.6-11.6h0.6C43.7,39.1,38.3,44.6,31.5,44.6z"/>
</g>
<path class="st2" d="M130.1,20.7"/>
</svg>
