<?xml version="1.0" encoding="utf-8"?>
<!-- Generator: Adobe Illustrator 26.1.0, SVG Export Plug-In . SVG Version: 6.00 Build 0)  -->
<svg version="1.1" id="Livello_1" xmlns="http://www.w3.org/2000/svg" xmlns:xlink="http://www.w3.org/1999/xlink" x="0px" y="0px"
	 viewBox="0 0 61 61" style="enable-background:new 0 0 61 61;" xml:space="preserve">
<style type="text/css">
	.st0{fill:#F4EDEC;stroke:#000000;stroke-miterlimit:10;}
	.st1{fill:#F4EDEC;stroke:#000000;stroke-linecap:round;stroke-linejoin:round;}
	.st2{fill:none;stroke:#000000;stroke-miterlimit:10;}
</style>
<g id="Livello_2_00000044135568957669594530000009865798630355831464_">
	<g id="Livello_1-2">
		<circle class="st0" cx="30.5" cy="30.5" r="30.2"/>
		<path class="st0" d="M43.2,22.4v13.1c0,1.5-1.2,2.7-2.7,2.7H28.3l-8.6,9.3l1.7-9.3h-0.9c-1.5,0-2.7-1.2-2.7-2.7V22.4
			c0-1.5,1.2-2.7,2.7-2.7h20.1C42,19.8,43.2,21,43.2,22.4z"/>
		<path class="st1" d="M36,31.8c0,0.2,0,0.3-0.1,0.4c-0.2,0.7-0.5,1.4-0.9,2.1c-0.3,0.5-0.6,1-0.9,1.4c0.3-0.8,0.4-1.5,0.5-2.3
			c0-0.2,0-0.3,0-0.5c-0.6-0.2-1-0.8-0.8-1.4s0.8-1,1.4-0.8C35.6,30.9,36,31.3,36,31.8z"/>
		<path class="st1" d="M40.1,31.8c0,0.2,0,0.3-0.1,0.4c-0.2,0.7-0.5,1.4-0.8,2.1c-0.3,0.5-0.6,1-0.9,1.4c0.3-0.8,0.4-1.5,0.5-2.3
			c0-0.2,0-0.3,0-0.5c-0.6-0.1-1-0.7-0.9-1.4c0.1-0.6,0.7-1,1.4-0.9C39.7,30.8,40.1,31.3,40.1,31.8L40.1,31.8z"/>
		<path class="st1" d="M24.7,24.3c0,0.2,0,0.3,0.1,0.5c0.2,0.7,0.5,1.4,0.8,2.1c0.3,0.5,0.6,1,0.9,1.4c-0.2-0.7-0.4-1.5-0.5-2.3
			c0-0.2,0-0.3,0-0.5c0.6-0.1,1-0.7,0.9-1.4s-0.7-1-1.4-0.9C25.1,23.3,24.7,23.8,24.7,24.3L24.7,24.3z"/>
		<path class="st1" d="M20.5,24.3c0,0.2,0,0.3,0.1,0.5c0.2,0.7,0.5,1.4,0.8,2.1c0.3,0.5,0.6,1,0.9,1.4c-0.3-0.7-0.4-1.5-0.5-2.3
			c0-0.2,0-0.3,0-0.5c0.6-0.1,1-0.7,0.9-1.4s-0.7-1-1.4-0.9C20.9,23.3,20.5,23.8,20.5,24.3L20.5,24.3z"/>
		<line class="st2" x1="21.3" y1="30.2" x2="32.8" y2="30.2"/>
		<line class="st2" x1="21.3" y1="33.6" x2="32.8" y2="33.6"/>
		<line class="st2" x1="29.3" y1="24.2" x2="40.8" y2="24.2"/>
		<line class="st2" x1="29.3" y1="27.6" x2="40.8" y2="27.6"/>
	</g>
</g>
</svg>
