<?xml version="1.0" encoding="utf-8"?>
<!-- Generator: Adobe Illustrator 26.1.0, SVG Export Plug-In . SVG Version: 6.00 Build 0)  -->
<svg version="1.1" id="Livello_1" xmlns="http://www.w3.org/2000/svg" xmlns:xlink="http://www.w3.org/1999/xlink" x="0px" y="0px"
	 viewBox="0 0 61 61" style="enable-background:new 0 0 61 61;" xml:space="preserve">
<style type="text/css">
	.st0{fill:#F4EDEC;stroke:#000000;stroke-miterlimit:10;}
	.st1{fill:none;stroke:#000000;stroke-width:0.75;stroke-linecap:round;stroke-linejoin:round;}
	.st2{fill:none;stroke:#000000;stroke-miterlimit:10;}
</style>
<g id="Livello_2_00000127035816207624237700000003712810194775824026_">
	<g id="Livello_1-2">
		<circle class="st0" cx="30.5" cy="30.5" r="30.2"/>
		<path class="st1" d="M35.3,33.2c0.4-0.8,0.8-1.4,1-1.9c1-1.8,1.4-2.3,1.8-2.2c0.2,0,0.3,0.1,0.4,0.2c0.3,0.3,0.1,1-0.9,2.7
			c-0.4,0.7-0.9,1.5-1.6,2.5l2.4,3.8h-2.2L34.8,36c-0.9,0.9-2.1,1.7-3.3,2.2c-1.2,0.5-2.4,0.7-3.6,0.7c-0.8,0-1.6-0.1-2.4-0.4
			c-0.7-0.3-1.3-0.7-1.7-1.2c-0.5-0.5-0.8-1.2-1-1.9c-0.2-0.8-0.2-1.6,0-2.4c0.2-0.7,0.4-1.4,0.8-2.1c0.4-0.6,0.9-1.2,1.4-1.7
			c0.6-0.5,1.2-1,1.9-1.4c0.6-0.4,1.3-0.7,2-1c-0.2-0.3-0.4-0.6-0.6-1c-0.2-0.3-0.3-0.7-0.4-1.1c-0.1-0.4-0.2-0.8-0.2-1.2
			c0-0.4,0-0.8,0.1-1.3c0.1-0.6,0.4-1.2,0.7-1.7c0.3-0.5,0.8-0.9,1.2-1.2c0.5-0.3,1-0.6,1.6-0.8c0.6-0.2,1.2-0.3,1.8-0.2
			c0.6,0,1.1,0.1,1.6,0.3c0.4,0.2,0.8,0.5,1.1,0.8c0.3,0.4,0.5,0.8,0.6,1.2c0.1,0.5,0.1,1,0,1.5c-0.1,0.6-0.4,1.2-0.7,1.8
			c-0.3,0.5-0.7,0.9-1.1,1.3c-0.5,0.4-1,0.7-1.5,1c-0.5,0.3-1.1,0.6-1.7,0.9L35.3,33.2z M29.8,28c-0.6,0.3-1.2,0.6-1.7,0.9
			c-0.5,0.4-1,0.8-1.5,1.2c-0.4,0.4-0.8,0.9-1.1,1.4c-0.3,0.5-0.5,1-0.6,1.6c-0.1,0.6-0.2,1.2,0,1.8c0.1,0.5,0.3,1,0.7,1.3
			c0.3,0.4,0.8,0.7,1.2,0.9c0.6,0.2,1.1,0.3,1.7,0.3c1,0,2.1-0.3,3-0.7c1-0.5,1.9-1.2,2.7-2L29.8,28z M34.3,23.4
			c0.2-0.4,0.4-0.8,0.4-1.2c0.1-0.4,0-0.8-0.1-1.2c-0.1-0.3-0.4-0.6-0.7-0.9c-0.4-0.2-0.8-0.3-1.3-0.3c-0.3,0-0.7,0.1-1,0.2
			c-0.4,0.1-0.7,0.3-1,0.5c-0.3,0.2-0.6,0.5-0.8,0.8c-0.2,0.3-0.4,0.6-0.4,1c-0.1,0.3-0.1,0.7,0,1c0.1,0.3,0.2,0.7,0.3,1
			c0.1,0.3,0.3,0.7,0.5,1c0.2,0.3,0.3,0.6,0.5,0.8c0.6-0.3,1.3-0.7,1.9-1.1C33.3,24.5,33.9,24,34.3,23.4L34.3,23.4z"/>
		<line class="st2" x1="19.8" y1="43.9" x2="42.2" y2="43.9"/>
	</g>
</g>
</svg>
