<?xml version="1.0" encoding="utf-8"?>
<!-- Generator: Adobe Illustrator 26.1.0, SVG Export Plug-In . SVG Version: 6.00 Build 0)  -->
<svg version="1.1" id="Livello_1" xmlns="http://www.w3.org/2000/svg" xmlns:xlink="http://www.w3.org/1999/xlink" x="0px" y="0px"
	 viewBox="0 0 61 61" style="enable-background:new 0 0 61 61;" xml:space="preserve">
<style type="text/css">
	.st0{fill:#F4EDEC;stroke:#000000;stroke-miterlimit:10;}
	.st1{fill:none;stroke:#000000;stroke-width:0.75;stroke-miterlimit:10;}
	.st2{fill:#F4EDEC;stroke:#000000;stroke-width:0.25;stroke-miterlimit:10;}
	.st3{fill:#F4EDEC;}
	.st4{fill:#F4EDEC;stroke:#000000;stroke-linecap:round;stroke-linejoin:round;stroke-miterlimit:10;}
</style>
<circle class="st0" cx="30.5" cy="30.5" r="30.2"/>
<path class="st0" d="M21.9,19.2H35c1.5,0,2.7,1.2,2.7,2.7V42c0,1.5-1.2,2.7-2.7,2.7H21.9c-1.5,0-2.7-1.2-2.7-2.7V21.9
	C19.2,20.5,20.4,19.2,21.9,19.2z"/>
<line class="st1" x1="22.1" y1="24.7" x2="34.7" y2="24.7"/>
<line class="st1" x1="22.1" y1="28.5" x2="34.7" y2="28.5"/>
<line class="st1" x1="22.1" y1="32.3" x2="34.7" y2="32.3"/>
<line class="st1" x1="22.1" y1="36" x2="34.7" y2="36"/>
<line class="st1" x1="21.9" y1="40.1" x2="34.5" y2="40.1"/>
<polygon class="st2" points="34.2,19.7 33.7,22.2 37.7,23.2 39.2,22.7 39.2,18.7 33.7,18.7 "/>
<polygon class="st2" points="33.7,19.2 33.7,23.2 37.7,23.2 "/>
<path class="st0" d="M27.8,15.4h11.4c1.5,0,2.7,1.2,2.7,2.7v17.8c0,1.5-1.2,2.7-2.7,2.7H27.8c-1.5,0-2.7-1.2-2.7-2.7V18.1
	C25.1,16.6,26.3,15.4,27.8,15.4z"/>
<line class="st1" x1="27.7" y1="20.4" x2="39.2" y2="20.4"/>
<line class="st1" x1="27.7" y1="23.8" x2="39.2" y2="23.8"/>
<line class="st1" x1="27.7" y1="27.2" x2="39.2" y2="27.2"/>
<line class="st1" x1="27.7" y1="30.6" x2="39.2" y2="30.6"/>
<line class="st1" x1="27.5" y1="34.4" x2="39" y2="34.4"/>
<polygon class="st3" points="38.8,15.8 38.3,18 42,19 43.3,18.6 43.3,14.9 38.3,14.9 "/>
<polygon class="st4" points="38.3,15.4 38.3,19 42,19 "/>
</svg>
