<?xml version="1.0" encoding="utf-8"?>
<!-- Generator: Adobe Illustrator 26.1.0, SVG Export Plug-In . SVG Version: 6.00 Build 0)  -->
<svg version="1.1" id="Livello_1" xmlns="http://www.w3.org/2000/svg" xmlns:xlink="http://www.w3.org/1999/xlink" x="0px" y="0px"
	 viewBox="0 0 61 61" style="enable-background:new 0 0 61 61;" xml:space="preserve">
<style type="text/css">
	.st0{fill:#F4EDEC;stroke:#000000;stroke-miterlimit:10;}
	.st1{fill:none;stroke:#000000;stroke-miterlimit:10;}
	.st2{fill:none;stroke:#000000;stroke-linejoin:round;}
</style>
<g id="Livello_2_00000100367185167660965230000012736954954085812121_">
	<g id="Livello_1-2">
		<circle class="st0" cx="30.5" cy="30.5" r="30.2"/>
		<line class="st1" x1="19.8" y1="43.9" x2="42.2" y2="43.9"/>
		<path class="st2" d="M40.4,14.8l-9.3,16.1c-0.4,0.7-1.3,0.9-2,0.5L29,31.4c-0.6,0-1.1-0.4-1.3-0.9L24,21.2
			c-0.3-0.8,0.1-1.6,0.8-1.9c0.2-0.1,0.4-0.1,0.5-0.1c0.6,0,1.1,0.4,1.4,0.9l3,7.3l8.2-14.1c0.3-0.5,0.7-0.7,1.3-0.7
			c0.3,0,0.5,0.1,0.7,0.2C40.6,13.2,40.8,14.1,40.4,14.8z"/>
		<rect x="22.9" y="36.4" class="st1" width="16" height="3.9"/>
	</g>
</g>
</svg>
