<?xml version="1.0" encoding="utf-8"?>
<!-- Generator: Adobe Illustrator 26.1.0, SVG Export Plug-In . SVG Version: 6.00 Build 0)  -->
<svg version="1.1" id="Livello_1" xmlns="http://www.w3.org/2000/svg" xmlns:xlink="http://www.w3.org/1999/xlink" x="0px" y="0px"
	 viewBox="0 0 1817 456.9" style="enable-background:new 0 0 1817 456.9;" xml:space="preserve">
<style type="text/css">
	.st0{fill:#F4EDEC;}
	.st1{fill:#FF0000;}
	.st2{fill:#FF00FF;}
	.st3{fill:#0000FF;}
	.st4{fill:#00FFFF;}
	.st5{fill:#00FF00;}
	.st6{fill:#662D91;}
	.st7{fill:#FFFF00;}
</style>
<rect x="0.5" class="st0" width="1816" height="456.9"/>
<rect y="23" class="st1" width="59" height="59"/>
<rect x="59" y="82" class="st1" width="59" height="59"/>
<rect x="118" y="23" class="st1" width="59" height="59"/>
<rect x="261.5" y="170.5" class="st2" width="59" height="59"/>
<rect x="261.5" y="228.4" class="st2" width="59" height="59"/>
<rect x="320.5" y="170.5" class="st2" width="59" height="59"/>
<rect x="466" y="364" class="st3" width="59" height="59"/>
<rect x="525" y="305" class="st3" width="59" height="59"/>
<rect x="643" y="128" class="st3" width="59" height="59"/>
<rect x="466" y="246" class="st3" width="59" height="59"/>
<rect x="525" y="187" class="st3" width="59" height="59"/>
<rect x="1203" y="128" class="st4" width="59" height="59"/>
<rect x="1260" y="187" class="st4" width="59" height="59"/>
<rect x="1319" y="128" class="st5" width="59" height="59"/>
<rect x="1260" y="69" class="st5" width="59" height="59"/>
<rect x="1260" y="128" class="st4" width="59" height="59"/>
<rect x="1319" y="69" class="st5" width="59" height="59"/>
<rect x="732" y="364" class="st6" width="59" height="59"/>
<rect x="790" y="309" class="st6" width="59" height="59"/>
<rect x="1142" y="187" class="st4" width="59" height="59"/>
<rect x="849" y="309" class="st6" width="59" height="59"/>
<rect x="907" y="254" class="st6" width="59" height="59"/>
<rect x="1403" y="368" class="st7" width="59" height="59"/>
<rect x="1403" y="309" class="st7" width="59" height="59"/>
<rect x="1462" y="309" class="st7" width="59" height="59"/>
<rect x="1462" y="250" class="st7" width="59" height="59"/>
<rect x="1521" y="191" class="st7" width="59" height="59"/>
<rect x="1580" y="250" class="st7" width="59" height="59"/>
<rect x="1698" y="118" width="59" height="59"/>
<rect x="1758" y="59" width="59" height="59"/>
<rect x="1758" width="59" height="59"/>
<rect x="1758" y="398" width="59" height="59"/>
<rect x="1758" y="339" width="59" height="59"/>
<rect x="1699" y="339" width="59" height="59"/>
<rect x="1699" y="280" width="59" height="59"/>
<rect x="1640.3" y="397.9" width="59" height="59"/>
<rect x="320.5" y="52.5" class="st2" width="59" height="59"/>
<rect x="261.5" y="111.5" class="st2" width="59" height="59"/>
<rect x="584" y="187" class="st3" width="59" height="59"/>
<rect y="398" class="st1" width="59" height="59"/>
<rect x="59" y="338.5" class="st1" width="59" height="59"/>
</svg>
